{"title":"Robert Altman - Cookie's Fortune [1999]","uid":5331947,"size":1362535002,"categoryP":"video","categoryS":"movies","magnet":"?xt=urn:btih:c1fb4d00ee605a20124f833a61243f513c22d6a3&amp;dn=Robert+Altman+-+Cookie%5C%27s+Fortune+%5B1999%5D&amp;tr=udp%3A%2F%2Ftracker.openbittorrent.com%3A80&amp;tr=udp%3A%2F%2Fopen.demonii.com%3A1337&amp;tr=udp%3A%2F%2Ftracker.coppersurfer.tk%3A6969&amp;tr=udp%3A%2F%2Fexodus.desync.com%3A6969","seeders":1,"leechers":1,"uploader":"mfccorrea","files":4,"time":1265158418,"description":"Robert Altman directed this bittersweet ensemble piece about an eccentric and entangled group of family and friends living in the Deep South. Jewel Mae &quot;Cookie&quot; Orcutt (Patricia Neal) is the widowed matriarch of a small-town Mississippi family, which includes her nieces Camille (Glenn Close), a pretentious would-be artist staging an amateur production of Salome at a local church, and Cora Julianne Moore), her less than enthusiastic leading lady. Willis (Charles S. Dutton), the caretaker of Cookie's rambling mansion, tries to persuade her sweet but aimless grand-niece, Emma (Liv Tyler), to move in with her, but she's more interested in her on-again, off-again romance with local cop Jason (Chris O'Donnell). Typical of Altman's work, Cookie's Fortune weaves together a number of different plot lines with relaxed grace, and features an impressive cast, including Ned Beatty, Lyle Lovett, and Courtney B. Vance. \n\n   General\n      Complete name : Cookie's Fortune.avi\n      Format : AVI\n      Format/Info : Audio Video Interleave\n      File size : 1.27 GiB\n      Duration : 1h 53mn\n      Overall bit rate : 1 607 Kbps\n      Writing application : VirtualDubMod 1.5.10.2 (build 2540/release)\n      Writing library : VirtualDubMod build 2540/release\n   Video #0\n      ID : 0\n      Format : MPEG-4 Visual\n      Format settings, BVOP : Yes\n      Format settings, QPel : No\n      Format settings, GMC : No warppoints\n      Format settings, Matrix : Default (H.263)\n      Muxing mode : Packed bitstream\n      Codec ID : DX50\n      Codec ID/Hint : DivX 5\n      Duration : 1h 53mn\n      Bit rate : 1 501 Kbps\n      Width : 640 pixels\n      Height : 336 pixels\n      Display aspect ratio : 1.905\n      Frame rate : 25.000 fps\n      Resolution : 24 bits\n      Colorimetry : 4:2:0\n      Scan type : Progressive\n      Bits/(Pixel*Frame) : 0.279\n      Stream size : 1.19 GiB (93%)\n      Writing library : DivX 6.1.1 (UTC 2006-02-01)\n   Audio #1\n      ID : 1\n      Format : MPEG Audio\n      Format version : Version 1\n      Format profile : Layer 3\n      Codec ID : 55\n      Codec ID/Hint : MP3\n      Duration : 1h 53mn\n      Bit rate mode : Constant\n      Bit rate : 96.0 Kbps\n      Channel(s) : 2 channels\n      Sampling rate : 44.1 KHz\n      Resolution : 16 bits\n      Stream size : 77.6 MiB (6%)\n      Alignment : Split accross interleaves\n      Interleave, duration : 40 ms (1.00 video frame)\n      Interleave, preload duration : 500 ms\n\nIMDB: tt0126250\n\nEnglish audio; English, Spanish and Portuguese subtitles\n\nRobert Altman - Cookie's Fortune [1999]","torrent":{"xt":"urn:btih:c1fb4d00ee605a20124f833a61243f513c22d6a3","amp;dn":"Robert+Altman+-+Cookie%5C%27s+Fortune+%5B1999%5D","amp;tr":["udp%3A%2F%2Ftracker.openbittorrent.com%3A80","udp%3A%2F%2Fopen.demonii.com%3A1337","udp%3A%2F%2Ftracker.coppersurfer.tk%3A6969","udp%3A%2F%2Fexodus.desync.com%3A6969"],"infoHash":"c1fb4d00ee605a20124f833a61243f513c22d6a3","infoHashBuffer":{"type":"Buffer","data":[193,251,77,0,238,96,90,32,18,79,131,58,97,36,63,81,60,34,214,163]},"announce":[],"urlList":[]}}